<svg width="42" height="42" viewBox="0 0 42 42" fill="none" xmlns="http://www.w3.org/2000/svg">
<g clip-path="url(#clip0_60_542)">
<path d="M35.2398 42C34.5924 41.9982 33.9517 41.8682 33.3549 41.6174C32.7581 41.3665 32.2168 41 31.7625 40.5388L21 29.8393L10.2375 40.5458C9.5463 41.247 8.65986 41.7238 7.69373 41.9139C6.7276 42.104 5.72661 41.9986 4.82125 41.6115C3.90691 41.2437 3.12471 40.6088 2.5768 39.7896C2.0289 38.9704 1.74076 38.005 1.75 37.0195V8.75C1.75 6.42936 2.67187 4.20376 4.31282 2.56282C5.95376 0.921872 8.17936 0 10.5 0L31.5 0C32.6491 0 33.7869 0.226325 34.8485 0.666054C35.9101 1.10578 36.8747 1.7503 37.6872 2.56282C38.4997 3.37533 39.1442 4.33992 39.584 5.40152C40.0237 6.46312 40.25 7.60093 40.25 8.75V37.0195C40.2598 38.0042 39.9727 38.969 39.4261 39.7881C38.8795 40.6072 38.0988 41.2426 37.1858 41.6115C36.5694 41.8693 35.9078 42.0014 35.2398 42ZM10.5 3.5C9.10762 3.5 7.77226 4.05312 6.78769 5.03769C5.80313 6.02226 5.25 7.35761 5.25 8.75V37.0195C5.24937 37.3111 5.33517 37.5964 5.49658 37.8392C5.65798 38.0821 5.88774 38.2717 6.15684 38.384C6.42593 38.4964 6.72229 38.5265 7.00847 38.4705C7.29466 38.4145 7.55783 38.275 7.76475 38.0695L19.775 26.1328C20.1029 25.8068 20.5464 25.6239 21.0088 25.6239C21.4711 25.6239 21.9146 25.8068 22.2425 26.1328L34.2388 38.066C34.4457 38.2715 34.7088 38.411 34.995 38.467C35.2812 38.523 35.5776 38.4929 35.8467 38.3805C36.1158 38.2682 36.3455 38.0786 36.5069 37.8357C36.6683 37.5929 36.7541 37.3076 36.7535 37.016V8.75C36.7535 7.35761 36.2004 6.02226 35.2158 5.03769C34.2312 4.05312 32.8959 3.5 31.5035 3.5H10.5Z" fill="#172554"/>
</g>
<defs>
<clipPath id="clip0_60_542">
<rect width="42" height="42" fill="white"/>
</clipPath>
</defs>
</svg>
