<svg width="42" height="42" viewBox="0 0 42 42" fill="none" xmlns="http://www.w3.org/2000/svg">
<g clip-path="url(#clip0_58_486)">
<path d="M35.2397 42C34.5923 41.9982 33.9517 41.8682 33.3549 41.6174C32.758 41.3665 32.2168 41 31.7625 40.5388L21 29.8393L10.2375 40.5458C9.54627 41.247 8.65983 41.7238 7.6937 41.9139C6.72757 42.104 5.72658 41.9986 4.82122 41.6115C3.90687 41.2437 3.12468 40.6088 2.57677 39.7896C2.02887 38.9704 1.74073 38.005 1.74997 37.0195V8.75C1.74997 6.42936 2.67184 4.20376 4.31279 2.56282C5.95373 0.921872 8.17933 0 10.5 0L31.5 0C32.649 0 33.7869 0.226325 34.8485 0.666054C35.9101 1.10578 36.8746 1.7503 37.6872 2.56282C38.4997 3.37533 39.1442 4.33992 39.5839 5.40152C40.0236 6.46312 40.25 7.60093 40.25 8.75V37.0195C40.2598 38.0042 39.9727 38.969 39.4261 39.7881C38.8795 40.6072 38.0988 41.2426 37.1857 41.6115C36.5694 41.8693 35.9078 42.0014 35.2397 42ZM10.5 3.5C9.10758 3.5 7.77223 4.05312 6.78766 5.03769C5.8031 6.02226 5.24997 7.35761 5.24997 8.75V37.0195C5.24934 37.3111 5.33514 37.5964 5.49655 37.8392C5.65795 38.0821 5.88771 38.2717 6.15681 38.384C6.4259 38.4964 6.72226 38.5265 7.00844 38.4705C7.29463 38.4145 7.5578 38.275 7.76472 38.0695L19.775 26.1328C20.1029 25.8068 20.5464 25.6239 21.0087 25.6239C21.471 25.6239 21.9146 25.8068 22.2425 26.1328L34.2387 38.066C34.4456 38.2715 34.7088 38.411 34.995 38.467C35.2812 38.523 35.5775 38.4929 35.8466 38.3805C36.1157 38.2682 36.3455 38.0786 36.5069 37.8357C36.6683 37.5929 36.7541 37.3076 36.7535 37.016V8.75C36.7535 7.35761 36.2003 6.02226 35.2158 5.03769C34.2312 4.05312 32.8959 3.5 31.5035 3.5H10.5Z" fill="#172554"/>
<g clip-path="url(#clip1_58_486)">
<path d="M4.98581 41.2125C5.94139 41.6209 6.99787 41.7318 8.01743 41.5308C9.03698 41.3297 9.97228 40.8261 10.7013 40.0855L21.0001 29.8428L31.2988 40.0855C31.779 40.5727 32.3511 40.9598 32.9819 41.2245C33.6127 41.4891 34.2897 41.626 34.9738 41.6273C35.677 41.6252 36.3728 41.4843 37.0213 41.2125C37.9847 40.8226 38.8082 40.1513 39.3841 39.2862C39.9601 38.4211 40.2619 37.4025 40.2501 36.3633V8.75C40.2473 6.43021 39.3245 4.20623 37.6842 2.56589C36.0438 0.925544 33.8199 0.00277875 31.5001 0L10.5001 0C8.18027 0.00277875 5.95629 0.925544 4.31595 2.56589C2.6756 4.20623 1.75284 6.43021 1.75006 8.75V36.3633C1.73877 37.4033 2.04157 38.4225 2.61887 39.2877C3.19617 40.1529 4.02111 40.8237 4.98581 41.2125Z" fill="#172554"/>
</g>
</g>
<defs>
<clipPath id="clip0_58_486">
<rect width="42" height="42" fill="white"/>
</clipPath>
<clipPath id="clip1_58_486">
<rect width="42" height="42" fill="white"/>
</clipPath>
</defs>
</svg>
