<svg width="19" height="19" viewBox="0 0 19 19" fill="none" xmlns="http://www.w3.org/2000/svg">
<g clip-path="url(#clip0_57_444)">
<path d="M18.768 17.6486L14.0425 12.9231C15.3303 11.3482 15.9634 9.33852 15.811 7.30985C15.6586 5.28118 14.7322 3.3887 13.2236 2.02386C11.715 0.65902 9.7395 -0.0737608 7.70575 -0.0229107C5.672 0.0279395 3.73559 0.85853 2.29706 2.29706C0.85853 3.73559 0.0279395 5.672 -0.0229107 7.70575C-0.0737608 9.7395 0.65902 11.715 2.02386 13.2236C3.3887 14.7322 5.28118 15.6586 7.30985 15.811C9.33852 15.9634 11.3482 15.3303 12.9231 14.0425L17.6486 18.768C17.7979 18.9122 17.9979 18.992 18.2054 18.9902C18.413 18.9884 18.6116 18.9051 18.7583 18.7583C18.9051 18.6116 18.9884 18.413 18.9902 18.2054C18.992 17.9979 18.9122 17.7979 18.768 17.6486ZM7.91662 14.25C6.664 14.25 5.43952 13.8785 4.398 13.1826C3.35649 12.4867 2.54473 11.4975 2.06538 10.3403C1.58602 9.18301 1.4606 7.90959 1.70498 6.68104C1.94935 5.4525 2.55254 4.32401 3.43827 3.43827C4.32401 2.55254 5.4525 1.94935 6.68104 1.70498C7.90959 1.4606 9.18301 1.58602 10.3403 2.06538C11.4975 2.54473 12.4867 3.35649 13.1826 4.398C13.8785 5.43952 14.25 6.664 14.25 7.91662C14.2481 9.59574 13.5802 11.2056 12.3929 12.3929C11.2056 13.5802 9.59574 14.2481 7.91662 14.25Z" fill="#94A3B8"/>
</g>
<defs>
<clipPath id="clip0_57_444">
<rect width="19" height="19" fill="white"/>
</clipPath>
</defs>
</svg>
